<svg width="332" height="268" viewBox="0 0 332 268" fill="none" xmlns="http://www.w3.org/2000/svg">
<path d="M45.99 158.15L17.07 129.23C10.77 122.93 0 127.39 0 136.3V202.62C0 211.53 10.77 215.99 17.07 209.69L45.99 180.77C52.24 174.52 52.24 164.39 45.99 158.14V158.15Z" fill="black"/>
<path d="M14.98 268H131.7C140.61 268 145.07 257.23 138.77 250.93L78.64 190.8C72.39 184.55 62.26 184.55 56.01 190.8L4.39 242.42C1.58 245.23 0 249.04 0 253.02C0 261.3 6.71 268 14.98 268Z" fill="black"/>
<path d="M268.071 0C254.81 0 242.092 5.26784 232.715 14.6446L87.2798 160.08C81.0298 166.33 81.0298 176.46 87.2798 182.71L155.289 250.719C166.354 261.784 181.361 268 197.008 268H316C324.84 268 332 260.84 332 252V16C332 7.16 324.84 0 316 0H268.071Z" fill="black"/>
<path d="M0 16V71.4C0 84.66 5.27 97.38 14.64 106.76L56.01 148.13C62.26 154.38 72.39 154.38 78.64 148.13L209.69 17.07C215.99 10.77 211.53 0 202.62 0H16C7.16 0 0 7.16 0 16Z" fill="black"/>
</svg>
