<svg width="128" height="64" viewBox="0 0 128 64" fill="none" xmlns="http://www.w3.org/2000/svg">
<g clip-path="url(#clip0_2786_1452)">
<mask id="mask0_2786_1452" style="mask-type:luminance" maskUnits="userSpaceOnUse" x="-538" y="-148" width="1213" height="1243">
<path d="M-537.888 1094.62H674.101V-147.922H-537.888V1094.62Z" fill="white"/>
</mask>
<g mask="url(#mask0_2786_1452)">
<path d="M66.4188 55.4857C63.945 55.3167 61.0926 54.8721 58.8428 54.2041C58.4213 54.0789 56.6765 53.4213 56.2326 53.2126C48.4001 49.493 42.9436 41.3732 42.9436 31.953C42.9436 19.0324 53.1969 8.508 65.808 8.508C78.3071 8.508 88.4912 18.8529 88.6663 31.6274H96.9264C96.7513 14.1856 82.8637 0.050087 65.808 0.050087C48.6505 0.050087 34.6855 14.3588 34.6855 31.953C34.6855 44.0826 41.3392 54.632 51.0815 60.0215C52.8406 60.9754 55.3653 61.9586 56.2224 62.2278C58.9996 63.0753 62.4078 63.6389 65.4415 63.8748C66.4717 63.9541 70.0694 63.9958 71.1179 64H128V55.565H71.2136C70.4582 55.565 67.1579 55.5358 66.4188 55.4857ZM71.2136 42.2415C70.613 42.2415 67.4714 42.2207 66.8911 42.1706C65.9078 42.085 64.4825 41.9347 63.5663 41.7197C62.532 41.4358 61.5609 41.0601 61.1231 40.8138C58.0549 39.1126 55.9639 35.7854 55.9639 31.953C55.9639 26.3777 60.3678 21.8566 65.808 21.8566C71.1342 21.8566 75.4648 26.2003 75.6379 31.6274H83.5742C83.4073 21.7125 75.5238 13.7222 65.808 13.7222C55.9842 13.7222 48.0214 21.8837 48.0214 31.953C48.0214 39.0542 51.9916 45.1868 57.7739 48.1905C58.6636 48.7248 60.3372 49.2842 60.8137 49.4116C62.4465 49.852 64.6393 50.1526 66.4188 50.2862C67.0764 50.3425 70.2974 50.3676 70.9774 50.3717V50.3843H127.998V42.2415H71.2136ZM29.5955 63.9687H21.2804V8.52679H9.12948V-7.62939e-06H29.5955V63.9687ZM0 12.7871V20.9861H9.12948V63.9687H17.1188V12.7871H0Z" fill="#969696"/>
<path d="M113.307 0.595206C110.312 0.595206 107.828 3.04366 107.828 6.11623C107.828 9.18879 110.312 11.7354 113.307 11.7354C116.394 11.7354 118.782 9.18879 118.782 6.11623C118.782 3.04366 116.394 0.595206 113.307 0.595206ZM113.307 10.8294C110.834 10.8294 108.702 8.83603 108.702 6.11623C108.702 3.53418 110.834 1.49068 113.307 1.49068C115.779 1.49068 117.901 3.53418 117.901 6.11623C117.901 8.83603 115.779 10.8294 113.307 10.8294Z" fill="#969696"/>
<path d="M115.394 7.62934C115.394 7.0094 115.304 6.4333 114.612 6.20578C115.479 5.89685 115.565 5.31448 115.565 4.96172C115.565 3.53607 114.302 3.35447 113.783 3.35447H111.395V8.87549H112.39V6.61072H113.174C114.302 6.61072 114.396 7.14299 114.396 7.62934C114.396 8.57074 114.396 8.74816 114.612 8.87549H115.609C115.394 8.65214 115.479 8.47889 115.394 7.62934ZM113.565 5.80501H112.39V4.06625H113.396C114.092 4.06625 114.565 4.29168 114.565 4.96172C114.565 5.31448 114.396 5.80501 113.565 5.80501Z" fill="#969696"/>
</g>
</g>
<defs>
<clipPath id="clip0_2786_1452">
<rect width="128" height="64" fill="white"/>
</clipPath>
</defs>
</svg>
