<svg width="67" height="55" viewBox="0 0 67 55" fill="none" xmlns="http://www.w3.org/2000/svg">
<g clip-path="url(#clip0_2686_526)">
<path d="M57.0551 29.2568L5.51962 29.2999C1.81773 29.2999 -0.802721 32.9652 0.237138 36.6307L4.18861 50.3863C4.89571 52.8011 7.05861 54.4397 9.4711 54.4397L61.0481 54.3966C64.7084 54.3966 67.3289 50.7313 66.289 47.066L62.3375 33.3534C61.6305 30.8954 59.5091 29.2568 57.0551 29.2568Z" fill="#0078BE"/>
<path d="M55.5988 24.2113L12.4654 53.4907C9.38739 55.6038 5.22795 54.0082 4.18807 50.3429L0.236615 36.5872C-0.470489 34.1724 0.444586 31.5851 2.48271 30.2052L45.6161 0.925847C48.694 -1.14398 52.8535 0.408392 53.8934 4.07371L57.8448 17.8295C58.5519 20.2443 57.6369 22.8316 55.5988 24.2113Z" fill="#03BE93"/>
</g>
<defs>
<clipPath id="clip0_2686_526">
<rect width="67" height="55" fill="white"/>
</clipPath>
</defs>
</svg>
