<svg width="332" height="268" viewBox="0 0 332 268" fill="none" xmlns="http://www.w3.org/2000/svg">
<path d="M67.46 0H16C7.16 0 0 7.16027 0 16.0006V199.658C0 208.568 10.77 213.028 17.07 206.728L144.67 79.123C150.92 72.8727 150.92 62.7424 144.67 56.4921L102.81 14.6406C93.44 5.2702 80.72 0 67.46 0Z" fill="black"/>
<path d="M229.19 14.6406L187.34 56.4921C181.09 62.7424 181.09 72.8727 187.34 79.123L314.93 206.718C321.23 213.018 332 208.558 332 199.648V16.0006C332 7.16027 324.84 0 316 0H264.55C251.29 0 238.57 5.2702 229.19 14.6406Z" fill="black"/>
<path d="M125.28 17.0706L154.69 46.4818C160.94 52.732 171.07 52.732 177.32 46.4818L206.73 17.0706C213.03 10.7704 208.57 0 199.66 0H132.36C123.45 0 118.99 10.7704 125.29 17.0706H125.28Z" fill="black"/>
<path d="M327.31 239.149L177.32 89.1533C171.07 82.903 160.94 82.903 154.69 89.1533L4.69 239.159C1.69 242.159 0 246.229 0 250.469V251.999C0 260.84 7.16 268 16 268H316C324.84 268 332 260.84 332 251.999V250.459C332 246.219 330.31 242.149 327.31 239.149Z" fill="black"/>
</svg>
