<svg width="1044" height="430" viewBox="0 0 1044 430" fill="none" xmlns="http://www.w3.org/2000/svg">
<mask id="mask0_2913_1986" style="mask-type:alpha" maskUnits="userSpaceOnUse" x="0" y="0" width="1044" height="430">
<rect width="1044" height="430" fill="#D9D9D9"/>
</mask>
<g mask="url(#mask0_2913_1986)">
<path fill-rule="evenodd" clip-rule="evenodd" d="M837.401 -0.372549C823.146 -0.372549 816.008 16.8617 826.087 26.9412L1016.31 217.168C1026.39 227.247 1043.63 220.108 1043.63 205.854L1043.63 15.6275C1043.63 6.79091 1036.46 -0.372549 1027.63 -0.372549L837.401 -0.372549Z" fill="black"/>
<path fill-rule="evenodd" clip-rule="evenodd" d="M355.154 -0.37254C340.9 -0.372539 333.761 16.8617 343.84 26.9412L535.769 218.87C542.018 225.119 552.148 225.119 558.397 218.87L766.993 10.2738V10.2738C771.583 5.68394 766.256 -0.372549 759.765 -0.372549L355.154 -0.37254Z" fill="black"/>
<path fill-rule="evenodd" clip-rule="evenodd" d="M558.397 261.297C552.148 255.048 542.018 255.048 535.769 261.297L394.752 402.314C384.673 412.393 391.812 429.627 406.066 429.627H688.1C702.355 429.627 709.493 412.393 699.414 402.314L558.397 261.297Z" fill="black"/>
<path fill-rule="evenodd" clip-rule="evenodd" d="M205.853 429.627C220.108 429.627 227.246 412.393 217.167 402.314L26.9412 212.088C16.8617 202.008 -0.372585 209.147 -0.372586 223.402L-0.372596 413.627C-0.372596 422.464 6.79087 429.627 15.6274 429.627L205.853 429.627Z" fill="black"/>
<path fill-rule="evenodd" clip-rule="evenodd" d="M-0.372578 15.6274C-0.372578 6.79087 6.79087 -0.372559 15.6274 -0.372559L290.1 -0.37256C294.344 -0.37256 298.413 1.31316 301.414 4.31374L525.87 228.77C532.118 235.018 532.118 245.149 525.87 251.397L352.326 424.941C349.325 427.942 345.256 429.627 341.012 429.627L270.907 429.627C266.664 429.627 262.594 427.942 259.593 424.941L4.3137 169.661C1.31312 166.661 -0.372573 162.591 -0.372573 158.348L-0.372578 15.6274ZM26.9412 212.088C16.8617 202.008 -0.372585 209.147 -0.372586 223.402L-0.372596 413.627C-0.372596 422.464 6.79087 429.627 15.6274 429.627L205.853 429.627C220.108 429.627 227.246 412.393 217.167 402.314L26.9412 212.088ZM535.769 218.87L343.84 26.9412C333.761 16.8617 340.9 -0.372539 355.154 -0.37254L759.765 -0.372549C766.256 -0.372549 771.583 5.68394 766.993 10.2738V10.2738L558.397 218.87C552.148 225.119 542.018 225.119 535.769 218.87ZM1043.63 205.854C1043.63 220.108 1026.39 227.247 1016.31 217.168L826.087 26.9412C816.008 16.8617 823.146 -0.372549 837.401 -0.372549L1027.63 -0.372549C1036.46 -0.372549 1043.63 6.79091 1043.63 15.6275L1043.63 205.854ZM799.52 20.1733L1038.94 259.594C1041.94 262.595 1043.63 266.664 1043.63 270.908V413.627C1043.63 422.464 1036.46 429.627 1027.63 429.627H753.154C748.91 429.627 744.841 427.942 741.84 424.941L568.296 251.397C562.048 245.149 562.048 235.018 568.296 228.77L776.893 20.1733C783.141 13.9249 793.272 13.9249 799.52 20.1733ZM558.397 261.297L699.414 402.314C709.493 412.393 702.355 429.627 688.1 429.627H406.066C391.812 429.627 384.673 412.393 394.752 402.314L535.769 261.297C542.018 255.048 552.148 255.048 558.397 261.297Z" fill="black"/>
<path fill-rule="evenodd" clip-rule="evenodd" d="M799.52 20.1733C793.272 13.9249 783.141 13.9249 776.893 20.1733L568.296 228.77C562.048 235.018 562.048 245.149 568.296 251.397L741.84 424.941C744.841 427.942 748.91 429.627 753.154 429.627H1027.63C1036.46 429.627 1043.63 422.464 1043.63 413.627V270.908C1043.63 266.664 1041.94 262.595 1038.94 259.594L799.52 20.1733Z" fill="black"/>
<path fill-rule="evenodd" clip-rule="evenodd" d="M270.907 429.627C266.664 429.627 262.594 427.942 259.593 424.941L4.3137 169.661C1.31312 166.661 -0.372573 162.591 -0.372573 158.348L-0.372578 15.6274C-0.372578 6.79087 6.79087 -0.372559 15.6274 -0.372559L290.1 -0.37256C294.344 -0.37256 298.413 1.31316 301.414 4.31374L525.87 228.77C532.118 235.018 532.118 245.149 525.87 251.397L352.326 424.941C349.325 427.942 345.256 429.627 341.012 429.627L270.907 429.627Z" fill="black"/>
</g>
</svg>
