<svg width="84" height="84" viewBox="0 0 84 84" fill="none" xmlns="http://www.w3.org/2000/svg">
<g clip-path="url(#clip0_2686_424)">
<path d="M84 42V0H42C58.4022 16.4022 67.5978 25.5978 84 42Z" fill="#038073"/>
<path d="M84 42V0H42C58.4022 16.4022 67.5978 25.5978 84 42Z" fill="#07302D"/>
<path d="M0 42V0H42C25.5978 16.4022 16.4022 25.5978 0 42Z" fill="#FFF4D8"/>
<path d="M84 84V42H42C58.4022 58.4022 67.5978 67.5978 84 84Z" fill="#038073"/>
<path d="M84 84V42H42C58.4022 58.4022 67.5978 67.5978 84 84Z" fill="#FFF4D8"/>
<path d="M0 84V42H42C25.5978 58.4022 16.4022 67.5978 0 84Z" fill="#FFF4D8"/>
</g>
<defs>
<clipPath id="clip0_2686_424">
<rect width="84" height="84" fill="white"/>
</clipPath>
</defs>
</svg>
